{
	"asset":{
		"generator":"Khronos glTF Blender I/O v4.1.63",
		"version":"2.0"
	},
	"extensionsUsed":[
		"KHR_materials_specular",
		"KHR_materials_ior"
	],
	"scene":0,
	"scenes":[
		{
			"name":"Scene",
			"nodes":[
				18
			]
		}
	],
	"nodes":[
		{
			"name":"Bone.017",
			"rotation":[
				1.5381738194264472e-07,
				0,
				0,
				1
			],
			"translation":[
				0,
				0.7750072479248047,
				0
			]
		},
		{
			"children":[
				0
			],
			"name":"Bone.016",
			"rotation":[
				-1.5377372619695961e-07,
				0,
				0,
				1
			],
			"translation":[
				0,
				0.7750082015991211,
				0
			]
		},
		{
			"children":[
				1
			],
			"name":"Bone.015",
			"rotation":[
				-1.5381738194264472e-07,
				0,
				0,
				1
			],
			"translation":[
				0,
				0.7750082015991211,
				-5.820766091346741e-11
			]
		},
		{
			"children":[
				2
			],
			"name":"Bone.014",
			"rotation":[
				3.0763476388528943e-07,
				0,
				0,
				1
			],
			"translation":[
				0,
				0.7750082015991211,
				0
			]
		},
		{
			"children":[
				3
			],
			"name":"Bone.013",
			"rotation":[
				-1.5386103768832982e-07,
				0,
				0,
				1
			],
			"translation":[
				0,
				0.7750062942504883,
				0
			]
		},
		{
			"children":[
				4
			],
			"name":"Bone.012",
			"translation":[
				0,
				0.7750067710876465,
				0
			]
		},
		{
			"children":[
				5
			],
			"name":"Bone.011",
			"rotation":[
				1.5383920981548727e-07,
				0,
				0,
				1
			],
			"translation":[
				0,
				0.7750072479248047,
				0
			]
		},
		{
			"children":[
				6
			],
			"name":"Bone.010",
			"rotation":[
				-1.5381738194264472e-07,
				0,
				0,
				1
			],
			"translation":[
				0,
				0.7750072479248047,
				0
			]
		},
		{
			"children":[
				7
			],
			"name":"Bone.009",
			"translation":[
				0,
				0.7750072479248047,
				0
			]
		},
		{
			"children":[
				8
			],
			"name":"Bone.008",
			"rotation":[
				1.5386103768832982e-07,
				0,
				0,
				1
			],
			"translation":[
				0,
				0.7750082015991211,
				2.9103830456733704e-11
			]
		},
		{
			"children":[
				9
			],
			"name":"Bone.007",
			"rotation":[
				-7.639755494892597e-11,
				0,
				0,
				1
			],
			"translation":[
				0,
				0.7750062942504883,
				-2.9103830456733704e-11
			]
		},
		{
			"children":[
				10
			],
			"name":"Bone.006",
			"rotation":[
				-1.5379555406980217e-07,
				0,
				0,
				1
			],
			"translation":[
				0,
				0.7750070095062256,
				0
			]
		},
		{
			"children":[
				11
			],
			"name":"Bone.005",
			"rotation":[
				-2.9103830456733704e-11,
				0,
				0,
				1
			],
			"scale":[
				1,
				0.9999999403953552,
				1
			],
			"translation":[
				0,
				0.7750060558319092,
				0
			]
		},
		{
			"children":[
				12
			],
			"name":"Bone.004",
			"rotation":[
				-1.537973730592057e-07,
				0,
				0,
				1
			],
			"translation":[
				0,
				0.7750064134597778,
				1.4551915228366852e-11
			]
		},
		{
			"children":[
				13
			],
			"name":"Bone.003",
			"rotation":[
				1.5388286556117237e-07,
				0,
				0,
				1
			],
			"translation":[
				0,
				0.7750080227851868,
				4.3655745685100555e-11
			]
		},
		{
			"children":[
				14
			],
			"name":"Bone.002",
			"rotation":[
				1.5374826034530997e-07,
				0,
				0,
				1
			],
			"translation":[
				0,
				0.7750063538551331,
				1.0913936421275139e-11
			]
		},
		{
			"children":[
				15
			],
			"name":"Bone.001",
			"rotation":[
				-0.7070820331573486,
				0,
				0,
				0.7071315050125122
			],
			"scale":[
				1,
				0.9999999403953552,
				1
			],
			"translation":[
				0,
				-0.0005199909210205078,
				0.00016021728515625
			]
		},
		{
			"mesh":0,
			"name":"Tail",
			"skin":0
		},
		{
			"children":[
				17,
				16
			],
			"name":"Armature"
		}
	],
	"materials":[
		{
			"doubleSided":true,
			"extensions":{
				"KHR_materials_specular":{
					"specularFactor":0
				},
				"KHR_materials_ior":{
					"ior":1
				}
			},
			"name":"Fur",
			"pbrMetallicRoughness":{
				"baseColorTexture":{
					"index":0
				},
				"metallicFactor":0
			}
		}
	],
	"meshes":[
		{
			"name":"Tail",
			"primitives":[
				{
					"attributes":{
						"POSITION":0,
						"NORMAL":1,
						"TEXCOORD_0":2,
						"JOINTS_0":3,
						"WEIGHTS_0":4
					},
					"indices":5,
					"material":0
				}
			]
		}
	],
	"textures":[
		{
			"sampler":0,
			"source":0
		}
	],
	"images":[
		{
			"mimeType":"image/jpeg",
			"name":"fluffytail",
			"uri":"fluffytail.jpg"
		}
	],
	"skins":[
		{
			"inverseBindMatrices":6,
			"joints":[
				16,
				15,
				14,
				13,
				12,
				11,
				10,
				9,
				8,
				7,
				6,
				5,
				4,
				3,
				2,
				1,
				0
			],
			"name":"Armature"
		}
	],
	"accessors":[
		{
			"bufferView":0,
			"componentType":5126,
			"count":7808,
			"max":[
				2.1962103843688965,
				2.1826279163360596,
				0.2095026969909668
			],
			"min":[
				-2.1962103843688965,
				-2.1836678981781006,
				-13.947896957397461
			],
			"type":"VEC3"
		},
		{
			"bufferView":1,
			"componentType":5126,
			"count":7808,
			"type":"VEC3"
		},
		{
			"bufferView":2,
			"componentType":5126,
			"count":7808,
			"type":"VEC2"
		},
		{
			"bufferView":3,
			"componentType":5121,
			"count":7808,
			"type":"VEC4"
		},
		{
			"bufferView":4,
			"componentType":5126,
			"count":7808,
			"type":"VEC4"
		},
		{
			"bufferView":5,
			"componentType":5123,
			"count":18822,
			"type":"SCALAR"
		},
		{
			"bufferView":6,
			"componentType":5126,
			"count":17,
			"type":"MAT4"
		}
	],
	"bufferViews":[
		{
			"buffer":0,
			"byteLength":93696,
			"byteOffset":0,
			"target":34962
		},
		{
			"buffer":0,
			"byteLength":93696,
			"byteOffset":93696,
			"target":34962
		},
		{
			"buffer":0,
			"byteLength":62464,
			"byteOffset":187392,
			"target":34962
		},
		{
			"buffer":0,
			"byteLength":31232,
			"byteOffset":249856,
			"target":34962
		},
		{
			"buffer":0,
			"byteLength":124928,
			"byteOffset":281088,
			"target":34962
		},
		{
			"buffer":0,
			"byteLength":37644,
			"byteOffset":406016,
			"target":34963
		},
		{
			"buffer":0,
			"byteLength":1088,
			"byteOffset":443660
		}
	],
	"samplers":[
		{
			"magFilter":9729,
			"minFilter":9987
		}
	],
	"buffers":[
		{
			"byteLength":444748,
			"uri":"fluffytail.bin"
		}
	]
}
