{
	"asset":{
		"generator":"Khronos glTF Blender I/O v4.1.63",
		"version":"2.0"
	},
	"scene":0,
	"scenes":[
		{
			"name":"Scene",
			"nodes":[
				15
			]
		}
	],
	"nodes":[
		{
			"name":"foot.R",
			"rotation":[
				0.6214004158973694,
				0.018945427611470222,
				-0.023869292810559273,
				0.782900333404541
			],
			"translation":[
				-1.1115534448435938e-07,
				0.7137382626533508,
				-2.2351741790771484e-08
			]
		},
		{
			"children":[
				0
			],
			"name":"leg.R.2",
			"rotation":[
				-0.5677899122238159,
				-0.02180345728993416,
				0.02399354614317417,
				0.8225348591804504
			],
			"scale":[
				0.9999999403953552,
				0.9999999403953552,
				1
			],
			"translation":[
				-1.3279030319779395e-08,
				1.7868094444274902,
				5.163019523024559e-08
			]
		},
		{
			"children":[
				1
			],
			"name":"leg.R.1",
			"rotation":[
				-0.5766665935516357,
				0.0011440074304118752,
				0.0021909449715167284,
				0.8169758915901184
			],
			"scale":[
				1,
				1,
				0.9999999403953552
			],
			"translation":[
				5.184751472597782e-08,
				1.9630491733551025,
				-2.3096799850463867e-07
			]
		},
		{
			"children":[
				2
			],
			"name":"leg.R.0",
			"rotation":[
				-0.8535970449447632,
				-0.0037719469983130693,
				0.002301863394677639,
				0.520915150642395
			],
			"scale":[
				1,
				0.9999999403953552,
				0.9999999403953552
			],
			"translation":[
				1.2001595497131348,
				-0.0298614501953125,
				-0.009703069925308228
			]
		},
		{
			"name":"Hatch",
			"translation":[
				0.04383279010653496,
				3.0640463829040527,
				-1.7832317352294922
			]
		},
		{
			"name":"arm.R",
			"translation":[
				1.18938410282135,
				1.0008344650268555,
				0.15888163447380066
			]
		},
		{
			"name":"arm.L",
			"translation":[
				-1.1090558767318726,
				1.0008344650268555,
				0.15888163447380066
			]
		},
		{
			"name":"MainGun",
			"rotation":[
				0,
				-1.3907313078931338e-09,
				0,
				1
			],
			"translation":[
				0.04016295075416565,
				-0.008512020111083984,
				1.0875998735427856
			]
		},
		{
			"children":[
				4,
				5,
				6,
				7
			],
			"name":"Head",
			"translation":[
				-0.040164124220609665,
				0.9001212120056152,
				-0.363493412733078
			]
		},
		{
			"name":"foot.L",
			"rotation":[
				0.6214004158973694,
				-0.018945427611470222,
				0.023869292810559273,
				0.782900333404541
			],
			"translation":[
				1.1115534448435938e-07,
				0.7137382626533508,
				-2.2351741790771484e-08
			]
		},
		{
			"children":[
				9
			],
			"name":"leg.L.2",
			"rotation":[
				-0.5677899122238159,
				0.02180345728993416,
				-0.02399354614317417,
				0.8225348591804504
			],
			"scale":[
				0.9999999403953552,
				0.9999999403953552,
				1
			],
			"translation":[
				1.3279030319779395e-08,
				1.7868094444274902,
				5.163019523024559e-08
			]
		},
		{
			"children":[
				10
			],
			"name":"leg.L.1",
			"rotation":[
				-0.5766665935516357,
				-0.0011440074304118752,
				-0.0021909449715167284,
				0.8169758915901184
			],
			"scale":[
				1,
				1,
				0.9999999403953552
			],
			"translation":[
				-5.184751472597782e-08,
				1.9630491733551025,
				-2.3096799850463867e-07
			]
		},
		{
			"children":[
				11
			],
			"name":"leg.L.0",
			"rotation":[
				-0.8535970449447632,
				0.0037719469983130693,
				-0.002301863394677639,
				0.520915150642395
			],
			"scale":[
				1,
				0.9999999403953552,
				0.9999999403953552
			],
			"translation":[
				-1.2001595497131348,
				-0.0298614501953125,
				-0.009703069925308228
			]
		},
		{
			"children":[
				3,
				8,
				12
			],
			"name":"Hip",
			"translation":[
				0,
				3.530548095703125,
				0.43886351585388184
			]
		},
		{
			"mesh":0,
			"name":"atst",
			"skin":0
		},
		{
			"children":[
				14,
				13
			],
			"name":"Armature"
		}
	],
	"animations":[
		{
			"channels":[
				{
					"sampler":0,
					"target":{
						"node":0,
						"path":"rotation"
					}
				},
				{
					"sampler":1,
					"target":{
						"node":12,
						"path":"rotation"
					}
				},
				{
					"sampler":2,
					"target":{
						"node":10,
						"path":"rotation"
					}
				},
				{
					"sampler":3,
					"target":{
						"node":1,
						"path":"rotation"
					}
				},
				{
					"sampler":4,
					"target":{
						"node":11,
						"path":"rotation"
					}
				},
				{
					"sampler":5,
					"target":{
						"node":2,
						"path":"rotation"
					}
				},
				{
					"sampler":6,
					"target":{
						"node":3,
						"path":"rotation"
					}
				},
				{
					"sampler":7,
					"target":{
						"node":9,
						"path":"rotation"
					}
				}
			],
			"name":"TPose",
			"samplers":[
				{
					"input":7,
					"interpolation":"LINEAR",
					"output":8
				},
				{
					"input":7,
					"interpolation":"LINEAR",
					"output":9
				},
				{
					"input":7,
					"interpolation":"LINEAR",
					"output":10
				},
				{
					"input":7,
					"interpolation":"LINEAR",
					"output":11
				},
				{
					"input":7,
					"interpolation":"LINEAR",
					"output":12
				},
				{
					"input":7,
					"interpolation":"LINEAR",
					"output":13
				},
				{
					"input":7,
					"interpolation":"LINEAR",
					"output":14
				},
				{
					"input":7,
					"interpolation":"LINEAR",
					"output":15
				}
			]
		}
	],
	"materials":[
		{
			"doubleSided":true,
			"name":"EMP_AT-ST",
			"normalTexture":{
				"index":0,
				"scale":0
			},
			"pbrMetallicRoughness":{
				"baseColorTexture":{
					"index":1
				},
				"metallicFactor":0,
				"roughnessFactor":0.5
			}
		}
	],
	"meshes":[
		{
			"name":"atst",
			"primitives":[
				{
					"attributes":{
						"POSITION":0,
						"NORMAL":1,
						"TEXCOORD_0":2,
						"JOINTS_0":3,
						"WEIGHTS_0":4
					},
					"indices":5,
					"material":0
				}
			]
		}
	],
	"textures":[
		{
			"sampler":0,
			"source":0
		},
		{
			"sampler":0,
			"source":1
		}
	],
	"images":[
		{
			"mimeType":"image/jpeg",
			"name":"atst_N",
			"uri":"atst_N.jpg"
		},
		{
			"mimeType":"image/jpeg",
			"name":"atst_D",
			"uri":"atst_D.jpg"
		}
	],
	"skins":[
		{
			"inverseBindMatrices":6,
			"joints":[
				13,
				3,
				2,
				1,
				0,
				8,
				4,
				5,
				6,
				7,
				12,
				11,
				10,
				9
			],
			"name":"Armature"
		}
	],
	"accessors":[
		{
			"bufferView":0,
			"componentType":5126,
			"count":15598,
			"max":[
				2.0962579250335693,
				7.55372428894043,
				2.475581169128418
			],
			"min":[
				-2.0962579250335693,
				0.0014864391414448619,
				-2.4688713550567627
			],
			"type":"VEC3"
		},
		{
			"bufferView":1,
			"componentType":5126,
			"count":15598,
			"type":"VEC3"
		},
		{
			"bufferView":2,
			"componentType":5126,
			"count":15598,
			"type":"VEC2"
		},
		{
			"bufferView":3,
			"componentType":5121,
			"count":15598,
			"type":"VEC4"
		},
		{
			"bufferView":4,
			"componentType":5126,
			"count":15598,
			"type":"VEC4"
		},
		{
			"bufferView":5,
			"componentType":5123,
			"count":39294,
			"type":"SCALAR"
		},
		{
			"bufferView":6,
			"componentType":5126,
			"count":14,
			"type":"MAT4"
		},
		{
			"bufferView":7,
			"componentType":5126,
			"count":1,
			"max":[
				0.06666666666666667
			],
			"min":[
				0.06666666666666667
			],
			"type":"SCALAR"
		},
		{
			"bufferView":8,
			"componentType":5126,
			"count":1,
			"type":"VEC4"
		},
		{
			"bufferView":9,
			"componentType":5126,
			"count":1,
			"type":"VEC4"
		},
		{
			"bufferView":10,
			"componentType":5126,
			"count":1,
			"type":"VEC4"
		},
		{
			"bufferView":11,
			"componentType":5126,
			"count":1,
			"type":"VEC4"
		},
		{
			"bufferView":12,
			"componentType":5126,
			"count":1,
			"type":"VEC4"
		},
		{
			"bufferView":13,
			"componentType":5126,
			"count":1,
			"type":"VEC4"
		},
		{
			"bufferView":14,
			"componentType":5126,
			"count":1,
			"type":"VEC4"
		},
		{
			"bufferView":15,
			"componentType":5126,
			"count":1,
			"type":"VEC4"
		}
	],
	"bufferViews":[
		{
			"buffer":0,
			"byteLength":187176,
			"byteOffset":0,
			"target":34962
		},
		{
			"buffer":0,
			"byteLength":187176,
			"byteOffset":187176,
			"target":34962
		},
		{
			"buffer":0,
			"byteLength":124784,
			"byteOffset":374352,
			"target":34962
		},
		{
			"buffer":0,
			"byteLength":62392,
			"byteOffset":499136,
			"target":34962
		},
		{
			"buffer":0,
			"byteLength":249568,
			"byteOffset":561528,
			"target":34962
		},
		{
			"buffer":0,
			"byteLength":78588,
			"byteOffset":811096,
			"target":34963
		},
		{
			"buffer":0,
			"byteLength":896,
			"byteOffset":889684
		},
		{
			"buffer":0,
			"byteLength":4,
			"byteOffset":890580
		},
		{
			"buffer":0,
			"byteLength":16,
			"byteOffset":890584
		},
		{
			"buffer":0,
			"byteLength":16,
			"byteOffset":890600
		},
		{
			"buffer":0,
			"byteLength":16,
			"byteOffset":890616
		},
		{
			"buffer":0,
			"byteLength":16,
			"byteOffset":890632
		},
		{
			"buffer":0,
			"byteLength":16,
			"byteOffset":890648
		},
		{
			"buffer":0,
			"byteLength":16,
			"byteOffset":890664
		},
		{
			"buffer":0,
			"byteLength":16,
			"byteOffset":890680
		},
		{
			"buffer":0,
			"byteLength":16,
			"byteOffset":890696
		}
	],
	"samplers":[
		{
			"magFilter":9729,
			"minFilter":9987
		}
	],
	"buffers":[
		{
			"byteLength":890712,
			"uri":"atst.bin"
		}
	]
}
