{
    "asset" : {
        "generator" : "Khronos glTF Blender I/O v3.3.32",
        "version" : "2.0"
    },
    "extensionsUsed" : [
        "WEBGI_animation_markers"
    ],
    "scene" : 0,
    "scenes" : [
        {
            "extensions" : {
                "WEBGI_animation_markers" : {}
            },
            "name" : "Scene",
            "nodes" : [
                22
            ]
        }
    ],
    "nodes" : [
        {
            "name" : "hand.l",
            "rotation" : [
                2.75231315072233e-07,
                2.752311729636858e-07,
                9.685706459094945e-08,
                1
            ],
            "translation" : [
                1.0658141036401503e-13,
                0.07382600754499435,
                -4.049482882351185e-08
            ]
        },
        {
            "children" : [
                0
            ],
            "name" : "wrist.l",
            "rotation" : [
                -5.500099291566585e-07,
                -8.366832275896741e-07,
                0.02665797621011734,
                0.9996446371078491
            ],
            "scale" : [
                0.9999998807907104,
                1,
                1
            ],
            "translation" : [
                -7.3398069844188285e-09,
                0.26004400849342346,
                -2.2078962658156343e-08
            ]
        },
        {
            "children" : [
                1
            ],
            "name" : "lowerarm.l",
            "rotation" : [
                9.084161756156561e-10,
                -1.211356170927047e-08,
                -0.055296458303928375,
                0.9984700679779053
            ],
            "scale" : [
                1.0000001192092896,
                1.0000001192092896,
                1
            ],
            "translation" : [
                5.0874859880423173e-11,
                0.24189738929271698,
                -2.1568727248677533e-08
            ]
        },
        {
            "children" : [
                2
            ],
            "name" : "upperarm.l",
            "rotation" : [
                -0.5141245722770691,
                -0.48546481132507324,
                -0.4854649007320404,
                0.5141242146492004
            ],
            "translation" : [
                0.21200735867023468,
                0.13413220643997192,
                7.994638195896187e-08
            ]
        },
        {
            "name" : "hand.r",
            "rotation" : [
                2.7523108769855753e-07,
                -2.752311729636858e-07,
                -9.499441944171849e-08,
                1
            ],
            "translation" : [
                -4.973799150320701e-14,
                0.07382601499557495,
                -4.0495056197187296e-08
            ]
        },
        {
            "children" : [
                4
            ],
            "name" : "wrist.r",
            "rotation" : [
                -5.50106904029235e-07,
                8.36640765555785e-07,
                -0.02665797993540764,
                0.9996446371078491
            ],
            "translation" : [
                3.6145735293757753e-09,
                0.26004400849342346,
                -2.2215642658807155e-08
            ]
        },
        {
            "children" : [
                5
            ],
            "name" : "lowerarm.r",
            "rotation" : [
                1.728846288351349e-09,
                2.3336065524404148e-08,
                0.055296462029218674,
                0.9984700679779053
            ],
            "scale" : [
                1.0000001192092896,
                1.0000001192092896,
                1
            ],
            "translation" : [
                4.3210945932514733e-10,
                0.24189738929271698,
                -2.1251958415291483e-08
            ]
        },
        {
            "children" : [
                6
            ],
            "name" : "upperarm.r",
            "rotation" : [
                -0.5141245722770691,
                0.48546481132507324,
                0.4854649007320404,
                0.5141242146492004
            ],
            "translation" : [
                -0.21200735867023468,
                0.13413220643997192,
                8.637002935074634e-08
            ]
        },
        {
            "name" : "head",
            "rotation" : [
                9.280093138386292e-09,
                2.842170943040401e-14,
                -1.405894697940847e-16,
                1
            ],
            "translation" : [
                6.221207009707673e-23,
                0.2688010334968567,
                0
            ]
        },
        {
            "children" : [
                3,
                7,
                8
            ],
            "name" : "chest",
            "rotation" : [
                -4.479950632685359e-09,
                -2.1316282072803006e-14,
                6.786926267002456e-17,
                1
            ],
            "translation" : [
                -2.2325500729384473e-22,
                0.37498795986175537,
                -1.4210854715202004e-14
            ]
        },
        {
            "children" : [
                9
            ],
            "name" : "spine",
            "rotation" : [
                2.1316282072803006e-14,
                -1.4210854715202004e-14,
                5.323506523631211e-22,
                1
            ],
            "translation" : [
                -5.1642343709073856e-23,
                0.19197750091552734,
                0
            ]
        },
        {
            "name" : "toes.l",
            "rotation" : [
                -2.3869983323265842e-08,
                0.9203547239303589,
                -0.3910846412181854,
                2.8891452075185953e-07
            ],
            "scale" : [
                1,
                0.9999995231628418,
                0.9999998807907104
            ],
            "translation" : [
                -7.692827708183358e-09,
                0.1656501740217209,
                -3.3369573770869465e-09
            ]
        },
        {
            "children" : [
                11
            ],
            "name" : "foot.l",
            "rotation" : [
                -0.4552399218082428,
                5.909561906491945e-08,
                -8.49063326313626e-08,
                0.8903688192367554
            ],
            "scale" : [
                1,
                1.0000001192092896,
                1.0000001192092896
            ],
            "translation" : [
                -3.509109447463743e-08,
                0.14943741261959076,
                1.9109016591301042e-09
            ]
        },
        {
            "children" : [
                12
            ],
            "name" : "lowerleg.l",
            "rotation" : [
                0.10622692108154297,
                1.5683713172620628e-07,
                -7.025290926776506e-08,
                0.9943419098854065
            ],
            "translation" : [
                -1.2433448048909668e-08,
                0.22707746922969818,
                -1.33628930143459e-09
            ]
        },
        {
            "children" : [
                13
            ],
            "name" : "upperleg.l",
            "rotation" : [
                0.9998490810394287,
                -6.756213366543307e-08,
                -1.1111198006119594e-07,
                0.017373962327837944
            ],
            "scale" : [
                1,
                1,
                1.0000003576278687
            ],
            "translation" : [
                0.17094509303569794,
                0.11358726024627686,
                8.586153121825646e-09
            ]
        },
        {
            "name" : "toes.r",
            "rotation" : [
                -1.284239630194861e-07,
                -0.9203547239303589,
                0.3910846412181854,
                6.948486941382725e-08
            ],
            "scale" : [
                1,
                0.9999995231628418,
                0.9999998807907104
            ],
            "translation" : [
                7.208342367448495e-09,
                0.1656501740217209,
                -5.975497430199539e-09
            ]
        },
        {
            "children" : [
                15
            ],
            "name" : "foot.r",
            "rotation" : [
                -0.4552399218082428,
                5.909554801064587e-08,
                -8.490637526392675e-08,
                0.8903688192367554
            ],
            "scale" : [
                1,
                1.0000001192092896,
                1.0000001192092896
            ],
            "translation" : [
                2.4513541418968998e-08,
                0.14943741261959076,
                1.8153816228050346e-09
            ]
        },
        {
            "children" : [
                16
            ],
            "name" : "lowerleg.r",
            "rotation" : [
                0.10622691363096237,
                -3.743558352198306e-08,
                8.249132577020646e-08,
                0.9943419098854065
            ],
            "translation" : [
                1.2126218251751197e-08,
                0.22707746922969818,
                -1.3362857487209112e-09
            ]
        },
        {
            "children" : [
                17
            ],
            "name" : "upperleg.r",
            "rotation" : [
                0.9998490810394287,
                6.729909074465468e-08,
                9.597377470527135e-08,
                0.017373962327837944
            ],
            "scale" : [
                1,
                1,
                1.0000003576278687
            ],
            "translation" : [
                -0.17094509303569794,
                0.11358731985092163,
                1.3765595774373196e-08
            ]
        },
        {
            "children" : [
                10,
                14,
                18
            ],
            "name" : "hips",
            "rotation" : [
                -3.376318602477113e-08,
                -1.270244638362783e-07,
                -3.777254913337564e-15,
                1
            ],
            "translation" : [
                6.544164268508989e-15,
                0.40566354990005493,
                -2.739296434128846e-08
            ]
        },
        {
            "children" : [
                19
            ],
            "name" : "root",
            "rotation" : [
                1.1007593769818413e-07,
                1.1944969457999832e-07,
                1.2057561438010012e-14,
                1
            ]
        },
        {
            "mesh" : 0,
            "name" : "Pete",
            "skin" : 0
        },
        {
            "children" : [
                21,
                20
            ],
            "name" : "Rig"
        }
    ],
    "materials" : [
        {
            "name" : "prototype_pete",
            "pbrMetallicRoughness" : {
                "baseColorTexture" : {
                    "index" : 0
                },
                "metallicFactor" : 0,
                "roughnessFactor" : 0.5
            }
        }
    ],
    "meshes" : [
        {
            "name" : "Pete",
            "primitives" : [
                {
                    "attributes" : {
                        "POSITION" : 0,
                        "NORMAL" : 1,
                        "TEXCOORD_0" : 2,
                        "JOINTS_0" : 3,
                        "WEIGHTS_0" : 4
                    },
                    "indices" : 5,
                    "material" : 0
                }
            ]
        }
    ],
    "textures" : [
        {
            "sampler" : 0,
            "source" : 0
        }
    ],
    "images" : [
        {
            "mimeType" : "image/jpeg",
            "name" : "pete_texture",
            "uri" : "pete_texture.jpg"
        }
    ],
    "skins" : [
        {
            "inverseBindMatrices" : 6,
            "joints" : [
                20,
                19,
                10,
                9,
                3,
                2,
                1,
                0,
                7,
                6,
                5,
                4,
                8,
                14,
                13,
                12,
                11,
                18,
                17,
                16,
                15
            ],
            "name" : "Rig"
        }
    ],
    "accessors" : [
        {
            "bufferView" : 0,
            "componentType" : 5126,
            "count" : 3292,
            "max" : [
                0.9712473154067993,
                2.3144912719726562,
                0.5549697279930115
            ],
            "min" : [
                -0.9712599515914917,
                -2.5756857212400064e-05,
                -0.48523077368736267
            ],
            "type" : "VEC3"
        },
        {
            "bufferView" : 1,
            "componentType" : 5126,
            "count" : 3292,
            "type" : "VEC3"
        },
        {
            "bufferView" : 2,
            "componentType" : 5126,
            "count" : 3292,
            "type" : "VEC2"
        },
        {
            "bufferView" : 3,
            "componentType" : 5121,
            "count" : 3292,
            "type" : "VEC4"
        },
        {
            "bufferView" : 4,
            "componentType" : 5126,
            "count" : 3292,
            "type" : "VEC4"
        },
        {
            "bufferView" : 5,
            "componentType" : 5123,
            "count" : 11646,
            "type" : "SCALAR"
        },
        {
            "bufferView" : 6,
            "componentType" : 5126,
            "count" : 21,
            "type" : "MAT4"
        }
    ],
    "bufferViews" : [
        {
            "buffer" : 0,
            "byteLength" : 39504,
            "byteOffset" : 0,
            "target" : 34962
        },
        {
            "buffer" : 0,
            "byteLength" : 39504,
            "byteOffset" : 39504,
            "target" : 34962
        },
        {
            "buffer" : 0,
            "byteLength" : 26336,
            "byteOffset" : 79008,
            "target" : 34962
        },
        {
            "buffer" : 0,
            "byteLength" : 13168,
            "byteOffset" : 105344,
            "target" : 34962
        },
        {
            "buffer" : 0,
            "byteLength" : 52672,
            "byteOffset" : 118512,
            "target" : 34962
        },
        {
            "buffer" : 0,
            "byteLength" : 23292,
            "byteOffset" : 171184,
            "target" : 34963
        },
        {
            "buffer" : 0,
            "byteLength" : 1344,
            "byteOffset" : 194476
        }
    ],
    "samplers" : [
        {
            "magFilter" : 9729,
            "minFilter" : 9987
        }
    ],
    "buffers" : [
        {
            "byteLength" : 195820,
            "uri" : "kaykit_char_pete.bin"
        }
    ]
}
